HIERARCHY
ROOT Hips
{
    OFFSET 0.000000 0.000000 0.000000
    CHANNELS 6 Xposition Yposition Zposition Zrotation Xrotation Yrotation
    JOINT Spine
    {
        OFFSET -0.000000 7.236184 0.000000
        CHANNELS 3 Zrotation Xrotation Yrotation
        JOINT Spine1
        {
            OFFSET -0.000000 20.420147 0.000000
            CHANNELS 3 Zrotation Xrotation Yrotation
            JOINT Neck
            {
                OFFSET -0.000000 20.336288 1.848754
                CHANNELS 3 Zrotation Xrotation Yrotation
                JOINT Head
                {
                    OFFSET -0.000000 12.354461 -1.764923
                    CHANNELS 3 Zrotation Xrotation Yrotation
                    End Site
                    {
                        OFFSET -0.000000 22.061537 0.000000
                    }
                }
            }
            JOINT LeftShoulder
            {
                OFFSET 3.573296 18.396038 -0.314103
                CHANNELS 3 Zrotation Xrotation Yrotation
                JOINT LeftArm
                {
                    OFFSET 10.880760 0.000000 0.000000
                    CHANNELS 3 Zrotation Xrotation Yrotation
                    JOINT LeftForeArm
                    {
                        OFFSET 27.185530 0.000000 0.000000
                        CHANNELS 3 Zrotation Xrotation Yrotation
                        JOINT LeftHand
                        {
                            OFFSET 27.825975 0.000000 0.000000
                            CHANNELS 3 Zrotation Xrotation Yrotation
                            End Site
                            {
                                OFFSET 13.236923 0.000000 0.000000
                            }
                        }
                    }
                }
            }
            JOINT RightShoulder
            {
                OFFSET -3.474926 18.396038 -0.314103
                CHANNELS 3 Zrotation Xrotation Yrotation
                JOINT RightArm
                {
                    OFFSET -10.880760 0.000000 0.000000
                    CHANNELS 3 Zrotation Xrotation Yrotation
                    JOINT RightForeArm
                    {
                        OFFSET -27.185530 0.000000 0.000000
                        CHANNELS 3 Zrotation Xrotation Yrotation
                        JOINT RightHand
                        {
                            OFFSET -27.825975 0.000000 0.000000
                            CHANNELS 3 Zrotation Xrotation Yrotation
                            End Site
                            {
                                OFFSET -13.236923 0.000000 0.000000
                            }
                        }
                    }
                }
            }
        }
    }
    JOINT LeftUpLeg
    {
        OFFSET 8.824615 0.000000 0.000000
        CHANNELS 3 Zrotation Xrotation Yrotation
        JOINT LeftLeg
        {
            OFFSET -0.000000 -35.111282 0.000000
            CHANNELS 3 Zrotation Xrotation Yrotation
            JOINT LeftFoot
            {
                OFFSET -0.000000 -42.324711 0.000000
                CHANNELS 3 Zrotation Xrotation Yrotation
                JOINT LeftToeBase
                {
                    OFFSET -0.000000 -5.735999 13.236923
                    CHANNELS 3 Zrotation Xrotation Yrotation
                    End Site
                    {
                        OFFSET -0.000000 0.000000 3.529846
                    }
                }
            }
        }
    }
    JOINT RightUpLeg
    {
        OFFSET -8.824615 0.000000 0.000000
        CHANNELS 3 Zrotation Xrotation Yrotation
        JOINT RightLeg
        {
            OFFSET -0.000000 -35.111282 0.000000
            CHANNELS 3 Zrotation Xrotation Yrotation
            JOINT RightFoot
            {
                OFFSET -0.000000 -42.324711 0.000000
                CHANNELS 3 Zrotation Xrotation Yrotation
                JOINT RightToeBase
                {
                    OFFSET -0.000000 -5.735999 13.236923
                    CHANNELS 3 Zrotation Xrotation Yrotation
                    End Site
                    {
                        OFFSET -0.000000 0.000000 3.529846
                    }
                }
            }
        }
    }
}
MOTION
Frames:    5
Frame Time:    0.008333
-3.780094    82.032814    109.118294    0.380510    -8.545867    -167.156418    -2.161403    -10.483943    -1.623727    2.463321    7.903201    -1.595606    0.540789    19.828161    -9.324267    14.866281    7.393352    -8.537219    4.876587    9.087148    -16.912815    -36.902519    28.904556    -67.249146    5.695466    -40.831764    -122.563286    30.245321    -29.682690    12.016814    1.170004    10.170236    10.422098    52.864544    3.023536    56.810787    0.561037    -35.318512    134.374573    -24.160336    -34.788059    -9.233536    9.360378    -22.588280    4.450860    -3.667866    29.639547    22.347582    -8.417731    -5.542367    -13.214419    0.432092    -1.424680    -0.480205    -12.626009    -13.065239    -8.027968    10.069579    27.118252    -11.173324    0.000000    0.000000    0.000000    0.000000    0.000000    0.000000    
-3.800095    81.967491    109.174049    0.561014    -8.537649    -166.374176    -2.147569    -10.471949    -1.519147    2.491902    7.997987    -1.496542    0.568558    19.788298    -9.506464    14.754869    7.450290    -8.743379    4.892425    9.049150    -16.907253    -36.515018    29.205799    -67.630394    5.256595    -40.579357    -122.816002    30.672602    -29.946915    12.277766    1.239524    10.334841    10.528887    53.302750    3.131731    56.929596    0.475543    -35.467438    134.723404    -24.105568    -34.790131    -9.192542    9.338554    -22.913050    4.247744    -3.567158    29.791113    21.950397    -8.506164    -5.744385    -13.378056    0.511486    -1.222738    -0.568227    -12.612232    -13.050903    -8.331589    10.212910    27.356367    -11.475665    0.000000    0.000000    0.000000    0.000000    0.000000    0.000000    
-3.820477    81.899918    109.226967    0.747131    -8.522835    -165.568970    -2.134097    -10.465279    -1.419954    2.529156    8.100537    -1.403590    0.592557    19.755978    -9.696851    14.647750    7.496100    -8.956341    4.912304    9.009246    -16.888680    -36.129284    29.504749    -68.001572    4.800616    -40.283649    -123.084358    31.078138    -30.195393    12.531337    1.316011    10.503935    10.610125    53.700462    3.254297    57.004688    0.397876    -35.575806    135.070129    -24.060265    -34.763340    -9.152766    9.307793    -23.254246    4.026485    -3.454072    29.967592    21.525499    -8.594264    -5.951228    -13.531363    0.588066    -1.021971    -0.653061    -12.594037    -13.026805    -8.644120    10.356304    27.594990    -11.790380    0.000000    0.000000    0.000000    0.000000    0.000000    0.000000    
-3.841382    81.829987    109.276833    0.939108    -8.500761    -164.737686    -2.120917    -10.463909    -1.327536    2.575633    8.210573    -1.318214    0.609958    19.734659    -9.895631    14.547449    7.529813    -9.176105    4.934396    8.969049    -16.854380    -35.742630    29.803961    -68.365257    4.333033    -39.948090    -123.364662    31.461405    -30.426231    12.776425    1.399556    10.680063    10.667800    54.054359    3.389352    57.034046    0.326443    -35.645370    135.411469    -24.021875    -34.707043    -9.112288    9.265749    -23.611158    3.785059    -3.326056    30.167524    21.068241    -8.679461    -6.162686    -13.670402    0.663754    -0.824895    -0.736848    -12.570572    -12.991420    -8.967066    10.498582    27.833670    -12.118069    0.000000    0.000000    0.000000    0.000000    0.000000    0.000000    
-3.862912    81.757828    109.323334    1.136446    -8.470895    -163.879974    -2.107621    -10.467641    -1.243201    2.631031    8.327504    -1.241722    0.619759    19.726944    -10.102469    14.454353    7.550945    -9.402267    4.956766    8.929780    -16.802662    -35.353043    30.104944    -68.722145    3.860644    -39.578156    -123.652603    31.820980    -30.637278    13.012461    1.490759    10.864388    10.704281    54.360191    3.535017    57.014465    0.259288    -35.679298    135.743118    -23.986526    -34.621189    -9.068087    9.210082    -23.982006    3.522158    -3.181043    30.388763    20.576664    -8.759912    -6.377824    -13.792397    0.739710    -0.633907    -0.820882    -12.541521    -12.943344    -9.299889    10.639336    28.070988    -12.458179    0.000000    0.000000    0.000000    0.000000    0.000000    0.000000    
